<?xml version="1.0" standalone="no"?>
<!DOCTYPE svg PUBLIC "-//W3C//DTD SVG 20010904//EN"
 "http://www.w3.org/TR/2001/REC-SVG-20010904/DTD/svg10.dtd">
<svg version="1.0" xmlns="http://www.w3.org/2000/svg"
 width="750.000000pt" height="750.000000pt" viewBox="0 0 750.000000 750.000000"
 preserveAspectRatio="xMidYMid meet">
<metadata>
Created by potrace 1.14, written by Peter Selinger 2001-2017
</metadata>
<g transform="translate(0.000000,750.000000) scale(0.100000,-0.100000)"
fill="#000000" stroke="none">
<path d="M0 7065 c0 -407 1 -435 18 -436 14 0 14 -2 -3 -9 -19 -8 -19 -9 -1
-9 11 -1 60 13 110 31 l91 31 69 -38 c39 -22 76 -51 86 -68 10 -16 29 -37 43
-46 13 -9 44 -29 68 -45 24 -16 54 -38 67 -49 12 -11 43 -28 70 -37 37 -13 52
-25 70 -58 13 -23 19 -42 13 -42 -6 0 -11 -4 -11 -8 0 -14 132 -60 169 -59 24
0 40 -7 55 -24 12 -13 39 -37 61 -53 22 -17 65 -55 95 -86 30 -30 68 -62 83
-70 16 -8 40 -25 53 -37 14 -13 28 -23 32 -23 3 0 20 -15 37 -34 27 -31 37
-35 85 -36 75 -2 258 19 295 35 21 8 39 9 55 3 35 -13 103 -1 123 22 9 11 26
20 37 20 27 0 90 31 90 45 0 6 11 21 25 33 14 12 25 26 25 32 0 5 6 10 13 10
8 0 32 13 55 30 71 51 104 60 182 51 38 -5 73 -12 78 -15 5 -3 23 0 41 7 23 8
30 16 25 29 -3 12 0 18 10 18 8 0 17 -9 21 -19 3 -11 12 -25 20 -31 12 -10 17
-7 25 16 14 35 26 44 63 44 16 0 27 5 26 13 -2 22 13 55 28 61 8 3 24 -1 36
-8 15 -10 37 -13 71 -9 l48 6 -5 34 c-5 29 -4 32 9 18 26 -26 76 -8 67 24 -3
10 0 22 6 25 7 5 11 -3 11 -18 0 -21 5 -26 25 -26 20 0 25 5 25 25 0 16 6 25
15 25 8 0 15 -9 15 -20 0 -14 7 -20 24 -20 25 0 43 25 26 35 -16 10 -12 20 12
30 25 11 76 90 78 120 1 19 2 18 10 -2 5 -13 18 -23 28 -23 10 0 22 -4 28 -10
6 -6 19 -5 36 4 15 8 36 12 47 9 16 -4 26 4 42 31 19 33 25 36 53 31 26 -5 37
0 71 34 29 28 43 36 53 29 9 -8 12 -5 12 10 0 11 7 25 15 32 12 10 18 9 31 -4
9 -9 29 -23 44 -31 32 -17 44 -4 27 29 -9 17 -6 18 28 13 21 -3 46 -14 56 -23
18 -16 19 -15 19 30 0 41 3 48 25 56 23 9 25 14 23 61 -2 35 1 53 10 56 7 3
12 -4 12 -16 0 -28 15 -27 41 3 17 20 28 23 56 19 l36 -6 -7 34 c-18 89 -18
106 0 113 9 3 18 5 19 4 15 -24 45 -77 45 -82 0 -3 -6 -6 -14 -6 -16 0 -26
-21 -26 -55 0 -12 -7 -25 -15 -29 -23 -8 -19 -53 5 -59 12 -3 20 -14 20 -26 0
-28 26 -27 45 3 9 13 35 32 57 41 39 15 42 15 52 -2 6 -10 11 -22 11 -27 0 -5
6 -11 13 -14 9 -3 13 3 12 14 -4 37 0 54 14 54 8 0 16 6 19 14 4 11 14 12 44
6 29 -7 40 -6 46 6 12 21 27 17 28 -8 1 -13 5 -3 9 22 9 50 4 77 -17 99 -13
13 -12 17 8 32 17 13 27 15 36 7 18 -15 29 18 13 38 -10 11 -10 18 -2 26 7 7
12 27 12 45 0 38 27 47 32 11 l3 -23 13 23 c18 32 8 55 -19 47 -18 -6 -19 -5
-7 14 17 27 48 28 48 1 0 -30 16 -24 30 13 8 17 20 40 29 51 9 10 16 30 16 44
0 19 6 27 25 32 19 4 33 22 54 68 24 50 34 62 53 62 13 0 26 7 29 15 4 8 13
15 21 15 8 0 21 7 29 15 13 13 60 15 299 15 274 0 283 -1 288 -20 3 -11 13
-23 24 -27 10 -3 30 -15 45 -25 14 -10 32 -18 40 -18 19 0 159 -145 180 -188
10 -20 24 -46 31 -57 50 -80 69 -104 86 -110 11 -3 23 -14 26 -25 3 -10 12
-21 20 -24 8 -3 15 -10 15 -16 0 -6 12 -28 26 -49 16 -26 27 -59 31 -97 4 -34
18 -82 34 -114 15 -30 30 -67 33 -81 4 -17 14 -29 30 -33 14 -3 28 -15 31 -26
11 -34 39 -42 68 -20 14 11 32 20 41 20 18 0 40 -36 33 -54 -3 -8 6 -11 29 -8
39 5 57 31 69 97 4 22 12 49 18 60 13 24 16 41 20 109 2 28 9 61 15 73 24 44
6 113 -29 113 -12 0 -1 46 20 84 9 16 23 42 31 58 19 35 44 70 85 118 17 19
49 60 72 90 23 30 67 81 97 112 l55 58 498 3 c274 1 -1191 3 -3254 5 l-3753 2
0 -435z m4490 400 c0 -8 -4 -15 -9 -15 -5 0 -11 7 -15 15 -3 9 0 15 9 15 8 0
15 -7 15 -15z m-850 -109 c10 -13 10 -19 0 -31 -17 -20 -32 -19 -53 5 -20 24
-21 32 -5 48 12 12 36 3 58 -22z m-115 -55 c-3 -6 -11 -11 -17 -11 -6 0 -6 6
2 15 14 17 26 13 15 -4z m-1181 -168 c-8 -25 -14 -57 -14 -70 0 -12 -5 -23
-11 -23 -13 0 -5 78 13 122 17 45 27 22 12 -29z m1736 -23 c0 -5 -9 -10 -20
-10 -11 0 -20 5 -20 10 0 6 9 10 20 10 11 0 20 -4 20 -10z m120 -14 c0 -2 -3
-11 -6 -20 -9 -23 -24 -20 -24 4 0 11 7 20 15 20 8 0 15 -2 15 -4z m-10 -86
c0 -11 -8 -24 -18 -29 -24 -13 -19 -93 6 -89 23 4 28 -30 6 -39 -10 -4 -19 -2
-22 5 -2 7 -9 12 -17 12 -7 0 -15 18 -19 42 -4 23 -11 48 -17 54 -14 17 9 51
41 63 30 10 40 6 40 -19z m-1090 -24 c0 -25 -25 -43 -35 -25 -10 15 5 49 21
49 8 0 14 -10 14 -24z m920 10 c0 -3 -4 -8 -10 -11 -5 -3 -10 -1 -10 4 0 6 5
11 10 11 6 0 10 -2 10 -4z m2110 -71 c0 -12 -32 -54 -45 -59 -11 -4 -10 2 3
29 9 19 23 35 30 35 6 0 12 -2 12 -5z m-2330 -25 c0 -5 -2 -10 -4 -10 -3 0 -8
5 -11 10 -3 6 -1 10 4 10 6 0 11 -4 11 -10z m-780 -14 c0 -8 -4 -17 -9 -20
-10 -7 -23 19 -14 28 11 11 23 6 23 -8z m1075 4 c15 -24 -5 -46 -45 -48 -48
-3 -53 15 -12 40 32 19 49 22 57 8z m-579 -87 c-10 -10 -19 5 -10 18 6 11 8
11 12 0 2 -7 1 -15 -2 -18z m84 11 c0 -8 -5 -12 -10 -9 -6 4 -8 11 -5 16 9 14
15 11 15 -7z m-60 -125 c0 -11 -4 -19 -9 -19 -16 0 -33 30 -27 46 5 13 9 14
21 4 8 -7 15 -21 15 -31z"/>
<path d="M4848 7420 c-11 -6 -18 -23 -18 -40 0 -18 -10 -39 -25 -54 -30 -30
-31 -43 -5 -51 11 -4 18 -11 15 -16 -7 -11 12 -49 26 -49 5 0 15 11 21 25 6
14 14 25 18 25 3 0 16 -18 29 -40 17 -30 28 -40 48 -40 25 0 25 0 21 -80 -2
-44 0 -80 4 -80 5 0 8 -7 8 -15 0 -21 27 -19 39 3 7 12 10 13 11 3 0 -17 53
-10 104 14 19 9 47 15 62 13 25 -3 30 -9 37 -47 5 -24 5 -47 0 -50 -4 -3 -8
-17 -8 -31 0 -19 -6 -26 -25 -28 -33 -4 -50 -28 -50 -69 0 -25 -4 -33 -17 -33
-17 -1 -17 -1 0 -11 9 -5 17 -16 17 -24 0 -20 -40 -45 -70 -45 -14 0 -36 -7
-48 -16 -20 -14 -21 -17 -7 -30 23 -23 18 -30 -18 -26 -22 2 -41 -3 -60 -18
-35 -28 -34 -40 3 -40 32 0 80 -19 80 -31 0 -4 -10 -11 -22 -14 -75 -21 -196
-73 -243 -105 -16 -11 -39 -20 -50 -20 -28 1 -165 -72 -165 -87 0 -6 -9 -15
-20 -18 -12 -4 -23 -18 -26 -34 -3 -16 -19 -43 -35 -62 -16 -19 -36 -48 -44
-65 -8 -17 -22 -37 -31 -45 -10 -8 -32 -37 -51 -66 -18 -28 -37 -54 -43 -58
-5 -3 -35 -8 -67 -11 -31 -3 -65 -10 -74 -15 -10 -5 -36 -9 -58 -9 -38 0 -46
-7 -42 -33 1 -4 -10 -5 -24 -1 -21 5 -25 3 -25 -15 0 -14 5 -19 15 -15 10 4
15 0 15 -14 0 -26 21 -42 47 -36 16 5 21 0 26 -24 3 -16 13 -36 21 -43 48 -44
45 -44 82 0 20 23 40 41 45 41 10 0 49 36 49 46 0 10 28 34 39 34 17 0 13 -13
-14 -44 -14 -16 -25 -34 -25 -39 0 -15 138 -147 154 -147 8 0 17 7 20 16 5 12
14 15 35 11 21 -5 34 0 50 17 11 12 21 29 21 38 0 9 7 19 15 22 9 3 21 19 26
36 12 34 29 40 29 11 0 -11 5 -23 10 -26 6 -3 10 -22 10 -42 0 -20 7 -44 15
-53 14 -15 14 -24 2 -71 -11 -43 -14 -97 -8 -148 1 -3 7 3 14 13 12 16 14 16
36 -3 31 -27 76 -27 98 -1 10 11 25 20 35 20 10 0 20 10 24 25 7 29 21 33 26
8 4 -20 -7 -114 -20 -178 -6 -32 -12 -39 -27 -37 -11 2 -31 4 -45 5 -14 1 -29
11 -36 25 -10 21 -13 22 -27 8 -21 -21 -33 -20 -50 4 -14 20 -15 20 -46 -19
-18 -22 -35 -56 -38 -76 -3 -19 -10 -38 -14 -41 -5 -3 -9 -18 -9 -34 0 -37
-16 -47 -41 -24 -14 13 -18 25 -14 45 4 15 1 38 -5 50 -11 20 -17 21 -80 15
-50 -5 -78 -3 -104 8 -21 9 -38 11 -41 5 -4 -5 -20 -9 -36 -9 -17 0 -28 4 -25
9 8 13 -11 18 -90 25 -38 4 -88 12 -111 18 -32 8 -46 8 -57 -1 -16 -13 -78
-156 -96 -221 -7 -25 -20 -65 -28 -90 -8 -25 -16 -63 -19 -85 -2 -22 -13 -52
-23 -66 -16 -23 -19 -42 -11 -91 3 -22 31 -4 95 58 11 11 37 29 56 40 19 10
52 34 73 52 28 24 46 32 77 32 41 0 46 -6 42 -53 -2 -14 4 -18 25 -15 21 2 27
9 30 32 5 37 30 57 59 46 19 -8 21 -6 16 12 -3 14 -1 19 6 14 7 -4 12 -14 12
-22 0 -24 27 -27 49 -5 12 12 21 26 21 31 0 6 7 10 16 10 12 0 15 -7 12 -31
-3 -20 0 -33 9 -36 7 -3 13 -11 13 -18 0 -29 100 -59 115 -35 3 6 17 10 29 10
13 0 35 9 49 20 17 14 40 20 69 20 63 -1 105 4 114 13 15 14 42 7 57 -17 15
-22 14 -25 -4 -44 -33 -37 -24 -43 55 -37 68 5 76 4 86 -15 6 -11 17 -20 25
-20 14 0 82 -34 98 -50 5 -4 10 -34 12 -66 1 -33 4 -65 6 -73 2 -8 -7 -20 -20
-27 -20 -10 -28 -10 -47 3 -26 17 -47 9 -41 -15 2 -10 -3 -29 -10 -44 -12 -24
-11 -31 3 -53 22 -34 55 -32 97 5 19 17 43 30 53 30 28 0 45 15 39 31 -4 12 1
15 23 13 28 -2 152 34 188 55 36 20 120 39 136 30 23 -13 3 -120 -38 -200 -19
-36 -34 -69 -34 -74 0 -5 -16 -24 -36 -42 -41 -37 -31 -42 41 -22 37 11 38 12
18 20 -13 5 -23 13 -23 18 0 13 33 31 57 31 11 0 34 16 53 35 23 23 43 35 61
35 15 0 31 5 34 10 3 6 14 10 24 10 10 0 39 11 65 24 26 13 62 27 81 30 21 4
35 14 38 26 3 11 14 20 24 20 22 0 98 75 108 108 3 12 10 22 15 22 9 0 26 66
19 72 -6 5 44 58 55 58 5 0 29 10 53 21 l44 21 -28 18 c-45 27 -56 45 -38 60
8 7 15 22 15 33 0 34 28 57 61 50 35 -7 39 12 9 50 -11 14 -20 30 -20 36 0 6
-3 10 -7 9 -16 -3 -43 15 -43 28 0 13 -7 16 -26 13 -11 -1 -24 25 -24 49 0 45
-44 47 -171 6 -26 -8 -69 -14 -96 -13 -58 3 -100 -25 -89 -59 5 -14 -5 -31
-35 -62 -36 -37 -40 -45 -31 -65 12 -26 -9 -65 -34 -65 -9 0 -44 -27 -78 -60
-35 -33 -67 -60 -72 -60 -13 0 -94 -80 -94 -94 0 -6 -19 -24 -41 -41 -23 -16
-57 -49 -76 -72 -36 -44 -48 -49 -72 -34 -11 7 -11 13 0 32 7 13 12 37 11 53
-3 32 23 66 72 96 28 18 28 18 7 29 -14 8 -21 21 -21 40 0 17 -10 36 -25 49
-14 12 -25 27 -25 33 0 19 20 49 34 49 7 0 18 11 24 24 7 16 25 29 52 37 22 7
40 14 40 16 0 17 -24 43 -40 43 -11 0 -20 6 -20 14 0 23 97 116 122 116 13 1
37 7 53 14 21 9 39 10 61 3 18 -5 44 -7 58 -3 23 6 25 10 20 34 -4 15 -10 31
-14 35 -4 5 5 22 20 39 25 27 37 31 107 38 43 5 90 11 106 14 15 3 38 8 51 11
16 3 26 13 28 27 2 16 12 24 33 28 39 7 29 26 -11 23 -18 -2 -37 4 -44 12 -7
8 -18 15 -25 15 -7 0 -18 6 -24 14 -9 11 -4 15 26 20 21 3 49 6 63 6 19 0 29
9 43 38 9 20 27 54 39 74 12 21 18 41 13 45 -4 5 -10 2 -12 -4 -3 -7 -11 -13
-18 -13 -7 0 -15 -6 -18 -14 -5 -13 -18 -17 -99 -32 -38 -7 -58 -28 -58 -62 0
-20 -4 -23 -27 -20 -16 2 -29 9 -29 16 -1 6 -2 19 -3 27 0 8 -9 15 -20 15 -17
0 -71 54 -71 72 0 5 -10 12 -22 17 -20 7 -20 9 15 41 41 37 49 70 17 70 -29 0
-36 27 -16 60 28 48 21 69 -30 91 -25 11 -47 26 -50 34 -3 7 -25 16 -49 20
-55 8 -89 33 -79 58 6 15 16 17 73 14 40 -2 77 -11 93 -21 14 -9 35 -19 48
-21 45 -9 56 -16 74 -50 11 -19 23 -35 27 -35 16 0 33 -71 38 -165 5 -74 9
-100 19 -100 52 0 47 241 -7 329 -22 36 -51 128 -52 165 0 14 -9 44 -18 66
l-18 40 -19 -32 c-10 -17 -30 -38 -44 -47 -24 -14 -27 -13 -38 4 -7 12 -8 21
-2 25 6 4 7 12 3 18 -4 7 -6 22 -5 34 2 12 -6 51 -17 87 -11 37 -18 79 -16 94
15 94 13 193 -6 254 -10 35 -19 77 -19 93 0 17 -10 42 -25 59 -14 16 -25 32
-25 36 0 11 -57 80 -62 75 -2 -3 -15 14 -29 36 -13 23 -38 58 -55 78 -17 20
-34 46 -38 58 -4 12 -27 42 -51 65 -59 59 -69 66 -100 74 -15 4 -29 13 -32 20
-2 7 -20 18 -39 24 -19 6 -34 17 -34 24 0 27 -257 58 -292 36z m272 -370 c0
-5 -7 -10 -16 -10 -8 0 -12 5 -9 10 3 6 10 10 16 10 5 0 9 -4 9 -10z m170
-120 c0 -5 -7 -10 -15 -10 -8 0 -15 5 -15 10 0 6 7 10 15 10 8 0 15 -4 15 -10z
m-95 -270 c3 -5 -1 -10 -9 -10 -9 0 -16 5 -16 10 0 6 4 10 9 10 6 0 13 -4 16
-10z m41 -110 c14 0 22 -4 19 -10 -7 -11 -45 -13 -69 -4 -9 3 -13 10 -10 16 3
5 13 7 21 4 8 -3 26 -6 39 -6z m-105 -9 c-8 -5 -20 -7 -28 -4 -21 8 -15 13 15
13 20 0 23 -3 13 -9z m-251 -345 c0 -18 76 -32 116 -22 18 5 24 3 18 -5 -5 -9
3 -10 34 -6 22 4 47 10 55 13 10 3 18 -2 22 -15 3 -12 13 -21 22 -21 39 0 -30
-58 -72 -59 -26 -1 -201 -57 -240 -77 -16 -9 -48 -26 -70 -39 -95 -56 -112
-59 -170 -35 -11 4 -41 14 -68 20 -41 11 -50 11 -66 -4 -9 -9 -20 -13 -23 -10
-9 9 31 73 53 85 25 13 24 29 -1 29 -46 0 -8 44 45 52 11 2 21 12 23 24 2 16
15 22 70 32 37 7 76 10 87 7 11 -2 45 6 75 19 64 28 90 32 90 12z m313 -417
c23 -98 27 -129 23 -179 -4 -48 -10 -59 -41 -86 -25 -23 -35 -39 -35 -61 0
-20 -11 -42 -31 -64 -16 -19 -34 -44 -39 -56 -18 -43 -31 -25 -27 35 2 36 -2
65 -10 78 -10 16 -11 44 -6 119 8 101 18 119 46 90 9 -8 18 -15 20 -15 3 0 10
29 17 65 7 36 16 65 21 65 5 0 15 11 21 25 15 33 30 27 41 -16z m197 -274 c0
-19 -39 -95 -62 -120 -10 -11 -34 -38 -53 -60 l-34 -40 8 32 c12 40 35 83 84
150 38 53 57 66 57 38z m-540 -10 c0 -8 -7 -15 -15 -15 -16 0 -20 12 -8 23 11
12 23 8 23 -8z m779 -169 c10 -12 8 -17 -7 -25 -25 -13 -49 8 -30 27 16 16 23
15 37 -2z m-869 -47 c0 -11 -4 -17 -10 -14 -5 3 -10 13 -10 21 0 8 5 14 10 14
6 0 10 -9 10 -21z m598 -91 c4 -19 -27 -33 -42 -18 -7 7 -6 10 2 10 7 0 12 7
12 16 0 20 24 13 28 -8z m-1157 -61 c-13 -13 -26 -3 -16 12 3 6 11 8 17 5 6
-4 6 -10 -1 -17z m569 -61 c0 -3 -4 -8 -10 -11 -5 -3 -10 -1 -10 4 0 6 5 11
10 11 6 0 10 -2 10 -4z m-166 -122 c-18 -37 -35 -50 -57 -41 -17 6 -10 67 7
67 6 0 22 9 36 20 32 25 38 6 14 -46z"/>
<path d="M4840 6160 c0 -5 4 -10 9 -10 6 0 13 5 16 10 3 6 -1 10 -9 10 -9 0
-16 -4 -16 -10z"/>
<path d="M4670 6050 c0 -13 20 -13 40 0 12 8 9 10 -12 10 -16 0 -28 -4 -28
-10z"/>
<path d="M4830 6890 c-10 -6 -11 -13 -5 -19 6 -6 16 -7 25 -1 10 6 11 13 5 19
-6 6 -16 7 -25 1z"/>
<path d="M4778 6844 c-19 -10 -28 -23 -28 -39 0 -14 2 -25 4 -25 6 0 58 71 55
75 -2 2 -16 -3 -31 -11z"/>
<path d="M4433 6803 c-3 -10 -13 -26 -21 -36 -18 -21 -13 -30 9 -14 9 7 19 24
23 40 7 30 -1 37 -11 10z"/>
<path d="M4137 6783 c-10 -9 -9 -23 2 -23 5 0 11 7 15 15 5 15 -5 20 -17 8z"/>
<path d="M4590 6739 c0 -5 5 -7 10 -4 6 3 10 8 10 11 0 2 -4 4 -10 4 -5 0 -10
-5 -10 -11z"/>
<path d="M3781 6731 c-14 -9 -9 -41 7 -41 15 0 34 28 27 40 -8 12 -16 13 -34
1z"/>
<path d="M4908 6720 c-8 -12 -24 -20 -40 -20 -30 0 -73 -34 -63 -50 4 -6 21
-10 39 -10 41 0 130 56 122 77 -3 8 -6 17 -6 19 0 13 -42 1 -52 -16z"/>
<path d="M4535 6710 c-3 -5 -13 -10 -22 -10 -9 0 -30 -10 -47 -22 -17 -13 -47
-31 -66 -41 -36 -18 -60 -66 -60 -121 0 -14 -4 -28 -10 -31 -15 -10 -12 -52 5
-59 10 -4 17 3 21 22 7 36 19 60 50 102 24 33 28 35 74 32 47 -4 50 -2 73 35
13 21 27 53 30 71 6 29 4 32 -18 32 -13 0 -27 -4 -30 -10z"/>
<path d="M4060 6680 c0 -5 6 -10 14 -10 8 0 18 5 21 10 3 6 -3 10 -14 10 -12
0 -21 -4 -21 -10z"/>
<path d="M4891 6547 c-6 -8 -29 -22 -51 -32 -22 -10 -39 -23 -37 -29 6 -18 23
-13 55 16 17 14 33 24 36 21 3 -3 12 1 20 10 8 8 12 17 9 21 -10 9 -20 7 -32
-7z"/>
<path d="M4431 6504 c-12 -15 -21 -39 -21 -55 0 -19 -6 -30 -21 -34 -16 -5
-19 -14 -17 -38 4 -42 28 -42 49 0 9 18 21 39 28 46 16 20 27 107 13 107 -6 0
-20 -12 -31 -26z"/>
<path d="M4610 6511 c0 -5 -3 -18 -6 -28 -6 -16 -5 -16 9 2 19 23 21 35 7 35
-5 0 -10 -4 -10 -9z"/>
<path d="M4290 6367 c0 -8 -3 -30 -6 -48 l-7 -34 22 28 c12 15 21 35 19 44 -4
21 -28 30 -28 10z"/>
<path d="M4344 6325 c-10 -25 7 -40 23 -20 7 11 13 22 13 27 0 14 -30 9 -36
-7z"/>
<path d="M4210 6150 c-9 -16 -8 -22 6 -27 16 -6 34 11 34 35 0 19 -28 14 -40
-8z"/>
<path d="M2973 6080 c4 -14 7 -31 7 -37 0 -7 5 -13 10 -13 16 0 11 46 -7 61
-15 13 -16 11 -10 -11z"/>
<path d="M4170 6044 c-31 -35 -32 -38 -15 -50 38 -28 63 -7 60 48 -2 41 -9 42
-45 2z"/>
<path d="M5970 5841 c0 -25 6 -27 13 -6 4 8 2 17 -3 20 -6 4 -10 -3 -10 -14z"/>
<path d="M4020 5778 c0 -34 52 -52 64 -22 8 21 7 22 -32 30 -24 5 -32 3 -32
-8z"/>
<path d="M5965 5771 c-6 -11 9 -23 19 -14 9 9 7 23 -3 23 -6 0 -12 -4 -16 -9z"/>
<path d="M4640 5724 c1 -36 2 -38 15 -20 19 25 19 31 0 46 -13 11 -15 7 -15
-26z"/>
<path d="M4321 5734 c0 -11 3 -14 6 -6 3 7 2 16 -1 19 -3 4 -6 -2 -5 -13z"/>
<path d="M7466 5655 c-3 -8 -1 -15 3 -15 5 0 11 7 15 15 3 8 1 15 -3 15 -5 0
-11 -7 -15 -15z"/>
<path d="M7480 5600 c0 -5 5 -10 10 -10 6 0 10 5 10 10 0 6 -4 10 -10 10 -5 0
-10 -4 -10 -10z"/>
<path d="M7410 5515 c-6 -8 -10 -19 -8 -26 2 -6 9 0 16 15 13 29 10 33 -8 11z"/>
<path d="M7486 5515 c-3 -8 -1 -15 4 -15 6 0 10 7 10 15 0 8 -2 15 -4 15 -2 0
-6 -7 -10 -15z"/>
<path d="M2706 5471 c-4 -5 -2 -12 3 -15 5 -4 12 -2 15 3 4 5 2 12 -3 15 -5 4
-12 2 -15 -3z"/>
<path d="M7491 5424 c0 -11 3 -14 6 -6 3 7 2 16 -1 19 -3 4 -6 -2 -5 -13z"/>
<path d="M3537 5370 c-14 -11 -31 -36 -37 -55 -8 -25 -20 -37 -46 -45 -19 -6
-34 -16 -34 -21 0 -5 -6 -9 -13 -9 -13 0 -10 -47 9 -122 11 -47 -11 -31 -29
20 -17 46 -49 80 -89 95 -10 3 -18 13 -18 22 0 8 -4 15 -8 15 -19 0 -39 -37
-37 -65 2 -16 4 -54 5 -84 4 -63 25 -91 70 -91 20 0 30 -5 30 -16 0 -8 -13
-20 -30 -25 -35 -13 -39 -35 -7 -45 34 -10 57 -34 57 -60 0 -35 -21 -40 -45
-11 -13 18 -30 27 -48 27 -24 0 -27 -3 -21 -24 3 -13 1 -27 -5 -30 -6 -4 -11
-16 -11 -27 0 -24 27 -25 53 -2 17 16 20 16 30 2 7 -8 19 -18 27 -21 8 -3 21
-26 29 -52 16 -56 26 -64 53 -39 21 18 21 18 16 -17 -3 -19 1 -49 8 -67 8 -18
14 -52 14 -77 0 -25 5 -48 10 -51 6 -4 16 -21 24 -39 12 -29 21 -34 82 -49 92
-23 134 -22 134 1 0 9 -4 23 -9 30 -4 7 -4 30 0 50 17 81 40 170 59 237 12 39
25 88 31 110 5 22 19 59 29 82 11 24 20 52 20 63 0 21 32 127 50 165 5 11 18
45 28 76 17 50 18 59 5 91 -16 41 -48 56 -63 28 -5 -9 -14 -37 -20 -61 -6 -24
-16 -62 -21 -84 -6 -22 -19 -92 -29 -155 -22 -139 -49 -224 -72 -228 -9 -2
-18 5 -21 15 -3 12 -5 8 -6 -9 -1 -19 4 -28 14 -28 17 0 21 -55 6 -79 -7 -11
-11 -9 -21 9 -17 31 -31 7 -24 -42 2 -23 -2 -53 -12 -76 l-16 -37 -8 28 c-5
15 -4 56 1 90 12 88 11 174 -3 198 -11 17 -10 22 5 33 9 7 17 24 17 38 0 14 9
36 19 50 11 13 21 37 24 53 2 17 4 -15 3 -69 -1 -121 18 -144 28 -35 3 40 10
77 15 83 11 14 42 187 44 246 2 42 0 45 -23 46 -14 0 -31 3 -37 7 -8 5 -15 -1
-19 -18 -8 -32 -18 -32 -41 1 -52 77 -81 89 -126 54z m-30 -253 c18 -21 19
-29 10 -90 -10 -67 -34 -94 -34 -39 -1 15 -4 55 -7 90 -7 67 -1 75 31 39z m71
-50 c2 -10 -3 -17 -12 -17 -18 0 -29 16 -21 31 9 14 29 6 33 -14z m-133 -65
c0 -18 -20 -15 -23 4 -3 10 1 15 10 12 7 -3 13 -10 13 -16z"/>
<path d="M7230 5305 c-7 -9 -10 -18 -7 -21 3 -3 10 4 17 15 13 25 8 27 -10 6z"/>
<path d="M7457 5233 c-4 -3 -7 -11 -7 -17 0 -6 5 -5 12 2 6 6 9 14 7 17 -3 3
-9 2 -12 -2z"/>
<path d="M7041 5214 c0 -11 3 -14 6 -6 3 7 2 16 -1 19 -3 4 -6 -2 -5 -13z"/>
<path d="M6340 5205 c0 -8 2 -15 4 -15 2 0 6 7 10 15 3 8 1 15 -4 15 -6 0 -10
-7 -10 -15z"/>
<path d="M7267 5183 c-10 -9 -9 -23 2 -23 5 0 11 7 15 15 5 15 -5 20 -17 8z"/>
<path d="M6396 5137 c3 -10 9 -15 12 -12 3 3 0 11 -7 18 -10 9 -11 8 -5 -6z"/>
<path d="M7312 5060 c-7 -11 -9 -20 -4 -20 10 0 32 22 32 32 0 15 -15 8 -28
-12z"/>
<path d="M7388 5069 c-10 -5 -18 -14 -18 -19 0 -17 15 -11 28 10 14 23 13 23
-10 9z"/>
<path d="M7435 5030 c-3 -5 -1 -10 4 -10 6 0 11 5 11 10 0 6 -2 10 -4 10 -3 0
-8 -4 -11 -10z"/>
<path d="M6812 5018 c-14 -14 -16 -28 -2 -28 5 0 14 9 20 20 12 22 1 27 -18 8z"/>
<path d="M6551 4994 c-7 -8 -11 -18 -8 -21 10 -9 47 8 47 23 0 18 -21 17 -39
-2z"/>
<path d="M2677 4964 c-10 -10 -9 -44 2 -44 13 0 23 32 13 42 -5 5 -11 5 -15 2z"/>
<path d="M2786 4962 c-3 -6 -1 -14 5 -17 15 -10 25 3 12 16 -7 7 -13 7 -17 1z"/>
<path d="M6350 4934 c0 -8 5 -12 10 -9 6 3 10 10 10 16 0 5 -4 9 -10 9 -5 0
-10 -7 -10 -16z"/>
<path d="M6261 4924 c0 -11 3 -14 6 -6 3 7 2 16 -1 19 -3 4 -6 -2 -5 -13z"/>
<path d="M6416 4915 c-3 -8 -11 -15 -19 -15 -9 0 -12 -10 -9 -35 4 -35 8 -37
57 -39 13 -1 27 -15 39 -39 l18 -38 20 21 c14 15 18 28 13 50 -8 36 7 40 23 5
13 -27 42 -34 42 -10 0 8 -6 15 -14 15 -23 0 -29 19 -12 36 21 20 20 27 -2 20
-9 -3 -32 -2 -50 3 -26 8 -34 7 -39 -5 -3 -9 -19 -14 -47 -13 -37 0 -39 1 -18
11 12 6 22 19 22 30 0 22 -16 24 -24 3z"/>
<path d="M3194 4895 c1 -26 10 -32 21 -15 3 6 0 17 -8 25 -13 12 -15 11 -13
-10z"/>
<path d="M6976 4904 c-5 -14 -4 -15 9 -4 17 14 19 20 6 20 -5 0 -12 -7 -15
-16z"/>
<path d="M7382 4895 c-11 -24 -10 -25 8 -15 11 6 20 17 20 25 0 23 -16 17 -28
-10z"/>
<path d="M6905 4890 c-3 -5 -1 -10 4 -10 6 0 11 5 11 10 0 6 -2 10 -4 10 -3 0
-8 -4 -11 -10z"/>
<path d="M2602 4844 c1 -9 9 -19 16 -22 9 -3 13 2 10 14 -1 9 -9 19 -16 22 -9
3 -13 -2 -10 -14z"/>
<path d="M6600 4849 c0 -5 5 -7 10 -4 6 3 10 8 10 11 0 2 -4 4 -10 4 -5 0 -10
-5 -10 -11z"/>
<path d="M1213 4815 c-14 -29 -22 -35 -47 -35 -23 0 -27 3 -18 12 15 15 16 48
2 48 -5 0 -10 -4 -10 -9 0 -5 -16 -26 -36 -47 -20 -22 -45 -57 -55 -79 -10
-22 -38 -62 -63 -89 -26 -28 -50 -68 -58 -93 -7 -23 -16 -43 -19 -43 -4 0 -13
-17 -20 -37 -6 -21 -24 -57 -40 -80 -15 -23 -25 -45 -21 -47 4 -3 39 4 77 16
39 11 93 23 120 28 67 11 95 20 95 32 0 5 17 9 38 7 69 -4 72 -2 65 32 -6 29
-4 30 23 27 23 -2 30 -9 32 -30 4 -32 -2 -32 166 -28 86 2 124 6 134 16 7 8
22 14 32 14 46 0 30 75 -18 86 -15 3 -36 9 -47 14 -61 27 -104 33 -150 20 -42
-12 -46 -16 -51 -51 -7 -39 -26 -65 -42 -55 -5 3 -7 38 -4 79 l4 74 -35 17
c-50 23 -55 36 -13 36 54 0 66 8 66 45 0 39 -19 57 -27 26 -3 -12 -12 -21 -19
-21 -23 0 -16 54 11 95 15 20 25 38 23 40 -2 1 -20 5 -40 9 -36 7 -39 5 -55
-29z"/>
<path d="M6975 4820 c-3 -5 -1 -10 4 -10 6 0 11 5 11 10 0 6 -2 10 -4 10 -3 0
-8 -4 -11 -10z"/>
<path d="M3137 4809 c-9 -6 -15 -14 -13 -18 3 -4 -8 -15 -25 -25 -19 -11 -29
-25 -29 -41 0 -14 -9 -30 -20 -37 -21 -13 -27 -47 -11 -63 13 -14 42 -117 35
-124 -4 -3 -11 1 -17 10 -9 14 -13 14 -38 2 -24 -12 -28 -19 -26 -53 1 -22 5
-40 9 -40 16 0 8 -26 -13 -44 -17 -14 -20 -25 -15 -54 3 -21 6 -57 6 -82 1
-42 2 -44 15 -26 8 11 15 16 15 12 0 -4 12 7 27 26 15 18 47 52 70 75 24 23
43 47 43 53 0 6 5 19 12 30 10 15 10 27 -1 55 -11 32 -11 39 5 56 9 10 30 19
46 19 36 0 35 14 -2 69 -17 24 -30 47 -30 51 0 10 49 0 56 -11 6 -10 44 -12
44 -3 0 4 -7 12 -15 18 -8 6 -16 20 -18 31 -2 11 -9 33 -15 48 -7 16 -12 33
-12 38 0 32 -48 48 -83 28z"/>
<path d="M1642 4779 c-12 -5 -27 -19 -33 -32 -16 -35 -43 -49 -74 -37 -34 13
-45 13 -45 -1 0 -6 6 -9 13 -6 10 4 12 -3 9 -24 -4 -27 -22 -42 -22 -19 0 16
-27 11 -34 -6 -9 -24 -7 -34 8 -34 8 0 16 -7 20 -15 3 -8 12 -15 20 -15 8 0
39 -13 70 -29 l56 -30 26 35 c34 45 68 53 98 25 12 -11 30 -21 39 -21 20 0 35
-49 18 -59 -13 -8 43 -71 64 -71 6 0 20 -9 30 -20 10 -11 31 -20 48 -20 16 0
44 -7 63 -16 42 -20 48 -16 29 20 -14 27 -13 32 10 74 30 54 32 78 4 92 -20
11 -20 13 -3 31 9 10 22 16 28 12 8 -4 8 -3 0 6 -6 7 -29 14 -50 15 -37 3 -91
25 -141 57 -19 11 -27 11 -43 1 -30 -18 -73 -15 -93 8 -9 11 -17 25 -17 30 0
16 -38 32 -46 19 -4 -8 -11 -2 -18 14 -9 21 -15 23 -34 16z m-102 -108 c0 -6
-4 -13 -10 -16 -5 -3 -10 1 -10 9 0 9 5 16 10 16 6 0 10 -4 10 -9z m240 -21
c0 -5 -4 -10 -10 -10 -5 0 -10 5 -10 10 0 6 5 10 10 10 6 0 10 -4 10 -10z"/>
<path d="M7448 4711 c-23 -23 -23 -31 1 -31 10 0 22 7 25 16 14 37 2 44 -26
15z"/>
<path d="M6880 4701 c0 -5 -20 -33 -45 -62 -25 -29 -45 -57 -45 -63 0 -16 79
66 96 98 17 35 17 36 4 36 -5 0 -10 -4 -10 -9z"/>
<path d="M7353 4695 c-9 -24 1 -27 15 -5 8 13 8 20 2 20 -6 0 -13 -7 -17 -15z"/>
<path d="M2670 4676 c0 -19 -11 -31 -48 -51 l-49 -26 3 -52 c1 -28 -2 -59 -7
-69 -5 -9 -11 -57 -13 -105 -1 -48 -7 -96 -11 -106 -4 -11 -3 -23 4 -30 15
-15 14 -72 -2 -85 -7 -6 -27 -12 -44 -14 l-31 -2 18 -24 c11 -13 36 -36 57
-52 21 -16 47 -37 58 -47 54 -51 85 -66 127 -59 52 8 85 25 69 35 -17 11 -4
38 21 44 17 5 19 10 13 34 -7 25 -12 54 -14 90 -1 6 -10 15 -21 18 -29 9 -25
19 15 34 33 12 35 15 37 64 3 83 0 111 -16 142 -22 41 -20 72 4 85 30 16 24
27 -20 33 -22 3 -47 12 -56 22 -15 15 -15 17 5 22 22 6 28 27 11 38 -5 3 -10
15 -10 26 0 12 -10 23 -27 29 -16 6 -36 15 -45 20 -25 14 -28 13 -28 -14z"/>
<path d="M7257 4666 c-4 -10 -1 -13 9 -9 15 6 19 23 5 23 -5 0 -11 -7 -14 -14z"/>
<path d="M6892 4637 c-18 -18 -32 -37 -32 -41 0 -4 -8 -18 -17 -31 -10 -12
-25 -33 -33 -45 -8 -12 -25 -33 -37 -46 -30 -32 -29 -46 2 -38 24 6 24 6 9
-25 -17 -35 -44 -42 -44 -11 0 14 -5 18 -16 13 -13 -5 -15 -1 -9 18 4 13 15
36 26 51 34 49 19 52 -29 7 -36 -34 -57 -34 -23 0 27 27 27 44 1 36 -14 -4
-22 -1 -26 10 -10 25 -115 -86 -107 -113 4 -16 -4 -24 -36 -38 -44 -19 -50
-30 -27 -48 22 -16 24 -95 4 -110 -14 -10 -16 -25 -11 -85 l5 -72 -45 -43 -44
-43 39 -18 40 -17 -6 -47 c-4 -25 -18 -72 -33 -103 -26 -57 -26 -58 -7 -79 17
-19 17 -22 3 -32 -8 -7 -18 -20 -22 -29 -3 -10 -14 -18 -23 -18 -12 0 -15 -6
-11 -21 4 -15 -5 -32 -32 -60 -21 -21 -41 -52 -44 -68 -7 -31 -52 -91 -70 -91
-20 0 -117 -101 -117 -120 0 -11 -4 -21 -9 -24 -5 -3 -12 -22 -15 -41 -4 -20
-11 -33 -16 -30 -6 3 -7 -1 -4 -9 6 -16 45 -22 58 -8 4 4 18 7 31 7 20 1 24
-5 28 -40 5 -50 -7 -85 -33 -92 -25 -7 -26 -20 -2 -27 10 -4 35 -22 56 -40 30
-28 36 -39 30 -60 -5 -23 -3 -26 19 -26 18 0 27 -7 31 -25 4 -14 17 -30 29
-34 32 -13 54 -40 39 -50 -16 -9 22 -91 42 -91 8 0 17 -7 20 -16 8 -21 9 -18
-11 -40 -14 -16 -30 -20 -75 -19 -32 1 -60 4 -64 8 -4 4 5 7 19 7 17 0 27 5
27 15 0 8 -4 15 -9 15 -5 0 -13 9 -16 20 -5 17 -12 19 -48 14 -71 -10 -73 -12
-43 -43 16 -16 27 -33 27 -38 -1 -4 24 -11 56 -15 78 -9 123 -20 218 -53 117
-40 154 -58 132 -63 -25 -5 -185 27 -219 44 -30 15 -115 19 -136 5 -10 -6 -5
-12 18 -21 17 -7 27 -17 23 -21 -11 -11 -3 -119 9 -119 5 0 6 5 3 10 -3 6 1
10 9 10 9 0 16 -5 16 -10 0 -6 3 -9 8 -9 34 6 53 -38 25 -58 -14 -11 -10 -13
30 -13 50 0 53 -5 38 -60 -5 -18 -14 -25 -31 -25 -14 0 -28 4 -31 8 -3 5 -19
-3 -34 -17 -15 -14 -34 -26 -42 -26 -9 0 -12 -6 -9 -17 8 -27 -7 -44 -49 -53
-30 -7 -41 -5 -50 6 -10 14 -45 10 -45 -5 0 -8 79 -57 107 -65 12 -4 38 -20
58 -36 21 -17 44 -30 51 -30 8 0 14 -4 14 -8 0 -5 18 -15 41 -22 39 -13 79
-54 65 -67 -3 -3 -17 -1 -31 5 -14 6 -31 9 -39 6 -7 -3 -20 1 -27 8 -8 8 -38
21 -68 31 -64 20 -80 22 -63 5 19 -19 14 -28 -18 -28 -18 0 -50 -14 -80 -35
-42 -30 -58 -35 -105 -35 -49 0 -55 -2 -55 -20 0 -11 -6 -23 -14 -26 -16 -6
-86 23 -86 36 0 4 -15 10 -32 13 -18 3 -46 9 -63 13 -30 7 -30 7 -12 -14 10
-11 43 -33 72 -49 33 -17 55 -35 57 -47 2 -10 10 -22 18 -26 8 -4 30 -14 47
-23 18 -9 35 -12 38 -8 4 8 29 13 138 28 41 6 117 -18 137 -43 10 -11 9 -14
-4 -14 -10 0 -14 -5 -11 -10 4 -6 11 -8 16 -5 5 4 9 2 9 -3 0 -6 -8 -13 -17
-17 -14 -5 -7 -12 31 -31 28 -13 60 -24 73 -24 13 0 23 -4 23 -10 0 -5 -8 -10
-18 -10 -10 0 -25 -12 -33 -26 -13 -25 -17 -26 -66 -20 -50 6 -76 -5 -51 -20
6 -4 14 -2 16 4 4 14 32 -10 32 -27 0 -6 5 -11 11 -11 6 0 3 -7 -5 -16 -20
-19 -21 -35 -2 -28 8 3 23 -8 36 -28 33 -47 49 -58 90 -58 20 0 41 -5 47 -11
16 -16 -2 -59 -38 -88 -29 -22 -33 -23 -72 -10 -59 19 -80 19 -93 3 -10 -12
-13 -12 -24 1 -8 10 -30 15 -61 15 -38 0 -52 4 -61 20 -10 16 -23 20 -63 19
-27 0 -44 -3 -36 -6 28 -11 -66 -35 -173 -45 -61 -5 -124 -15 -140 -23 -17 -8
-65 -19 -106 -25 -227 -31 -285 -50 -296 -97 -12 -45 -2 -58 47 -61 38 -2 52
2 77 23 16 14 38 25 48 25 9 0 25 7 35 15 22 21 63 10 84 -21 11 -18 22 -23
36 -19 10 4 19 2 19 -3 0 -6 23 -13 51 -17 69 -10 139 -41 139 -63 0 -12 10
-18 36 -20 23 -1 43 -11 59 -28 14 -15 48 -38 77 -51 46 -21 50 -26 35 -35
-10 -5 -22 -21 -28 -35 -8 -22 -4 -30 31 -64 22 -21 45 -39 52 -39 9 0 9 -3 0
-12 -7 -7 -12 -27 -12 -44 0 -24 -5 -34 -19 -39 -11 -3 -21 -13 -23 -21 -2
-13 -7 -12 -30 6 -34 27 -92 37 -113 20 -10 -9 -15 -9 -15 -1 0 6 -8 11 -17
11 -9 0 -28 13 -42 29 -31 35 -71 50 -71 27 0 -9 5 -16 10 -16 6 0 10 -7 10
-15 0 -8 -4 -15 -9 -15 -5 0 -22 -5 -38 -11 -26 -11 -21 -13 60 -25 50 -8 94
-20 103 -29 9 -8 21 -15 27 -15 24 0 157 -96 163 -117 11 -39 -1 -49 -55 -52
-39 -1 -59 3 -80 18 -53 38 -141 19 -138 -29 3 -35 -35 -35 -43 0 -5 22 -11
25 -50 25 -36 0 -45 -4 -45 -18 0 -20 -45 -47 -95 -56 -33 -6 -35 -9 -33 -42
2 -30 -2 -36 -28 -46 -25 -10 -29 -16 -27 -44 2 -27 9 -35 43 -50 22 -9 70
-20 108 -24 73 -8 79 -3 51 40 -26 39 -4 72 28 42 7 -6 38 -13 68 -14 30 0 71
-4 90 -9 29 -6 31 -8 15 -14 -19 -6 -18 -7 3 -26 25 -21 28 -40 10 -47 -8 -3
-6 -6 5 -6 9 -1 17 -5 17 -11 0 -14 -11 -12 -29 4 -21 19 -91 47 -91 37 0 -4
11 -14 25 -21 23 -12 42 -44 37 -62 -1 -5 358 -8 798 -8 l800 0 0 604 c0 474
-3 606 -12 610 -10 5 -10 7 0 12 17 8 18 1334 1 1334 -8 0 -8 4 0 13 17 21 15
971 -2 961 -9 -5 -9 -4 1 7 7 8 12 42 12 91 0 85 -6 91 -47 49 -18 -19 -23
-20 -23 -8 0 9 7 22 15 29 52 43 55 50 55 124 0 49 -4 74 -12 77 -10 3 -10 10
2 32 12 22 12 29 3 32 -15 5 -18 43 -3 43 6 0 10 14 10 31 l0 30 -35 -27 c-23
-17 -35 -35 -35 -51 0 -13 -7 -26 -17 -30 -10 -4 -30 -18 -45 -32 -58 -56 -68
-62 -68 -46 0 8 5 15 10 15 6 0 10 5 10 12 0 6 18 28 40 48 23 21 40 46 40 58
0 28 -26 19 -34 -11 -5 -20 -54 -53 -63 -43 -6 6 40 69 80 112 20 22 37 42 37
46 0 17 45 58 62 58 14 0 18 8 18 33 l-1 32 -27 -33 c-15 -18 -31 -30 -35 -26
-10 10 -9 112 1 116 5 2 12 16 16 31 4 16 3 27 -1 25 -19 -8 -105 -109 -99
-116 4 -4 12 1 17 11 12 20 49 23 49 3 0 -19 -59 -78 -71 -70 -5 3 -9 12 -9
20 0 25 -27 15 -62 -23 -54 -59 -88 -93 -94 -93 -4 0 -4 14 -2 30 3 20 0 30
-9 30 -28 0 -6 36 69 117 26 28 48 58 48 66 0 8 11 22 25 31 14 9 25 24 25 34
0 13 -7 9 -30 -15 -17 -18 -30 -36 -30 -41 0 -6 -11 -13 -25 -16 -14 -4 -25
-13 -25 -21 0 -8 -6 -18 -12 -22 -7 -4 -18 -17 -24 -28 -12 -22 -94 -88 -101
-82 -5 6 30 67 39 67 14 0 58 55 58 73 0 14 -4 16 -19 7 -30 -15 -33 -13 -26
20 8 37 -8 39 -24 3 -10 -22 -14 -24 -21 -12 -5 7 -7 21 -4 31 2 9 0 19 -6 23
-20 12 -10 46 25 82 40 41 43 53 16 53 -10 0 -22 7 -25 16 -3 8 -10 12 -16 9
-14 -9 -12 -42 3 -49 10 -5 10 -7 0 -12 -7 -3 -13 -14 -13 -25 0 -10 -11 -29
-25 -41 -29 -25 -32 -38 -9 -38 14 0 15 -7 10 -39 -4 -27 -2 -41 7 -44 8 -3 4
-12 -12 -28 -21 -21 -23 -22 -17 -4 13 35 11 40 -12 39 -16 0 -19 3 -12 10 13
13 13 56 0 56 -6 0 -15 -10 -20 -22 -10 -25 -90 -118 -90 -105 0 21 53 109 75
123 14 9 25 25 25 35 0 11 5 19 10 19 6 0 10 7 10 15 0 24 -13 17 -40 -20 -14
-19 -31 -35 -37 -35 -7 0 -13 -6 -13 -13 0 -14 -31 -47 -43 -47 -13 0 80 134
131 187 54 57 70 93 32 73 -11 -6 -20 -14 -20 -18 0 -4 -15 -23 -33 -43 -17
-20 -37 -44 -43 -54 -5 -10 -20 -25 -33 -33 -21 -15 -22 -14 -16 10 5 18 2 27
-9 31 -23 9 -20 34 7 52 25 16 53 85 35 85 -6 0 -17 -8 -24 -17 -11 -15 -13
-15 -13 -3 -1 8 8 26 19 40 39 50 19 55 -28 7z m-27 -146 c-3 -12 -15 -21 -25
-21 -10 0 -20 -6 -23 -12 -8 -22 -20 0 -13 25 6 25 45 50 59 37 5 -4 6 -17 2
-29z m-25 -82 c-7 -11 -14 -18 -17 -15 -8 8 5 36 17 36 7 0 7 -6 0 -21z m-30
-44 c0 -8 -4 -15 -10 -15 -5 0 -10 7 -10 15 0 8 5 15 10 15 6 0 10 -7 10 -15z
m35 -31 c-37 -34 -44 -22 -9 16 16 16 31 25 32 20 2 -6 -8 -22 -23 -36z m295
-51 c-1 -14 -24 -39 -52 -57 l-27 -18 12 34 c7 18 17 36 22 40 13 10 45 10 45
1z m-170 -42 c0 -6 -4 -13 -10 -16 -5 -3 -10 1 -10 9 0 9 5 16 10 16 6 0 10
-4 10 -9z m24 -48 c-18 -15 -30 -20 -33 -12 -4 14 53 61 58 47 2 -6 -9 -21
-25 -35z m398 -58 c-4 -25 -74 -86 -85 -75 -5 4 -4 17 2 28 14 27 14 32 -4 32
-8 0 -15 5 -15 11 0 6 9 9 20 6 10 -3 27 1 37 9 25 19 49 13 45 -11z m-152
-70 c0 -3 -9 -14 -20 -25 -19 -19 -20 -19 -20 -2 0 10 3 22 7 25 7 8 33 9 33
2z m50 -35 c0 -5 -10 -15 -22 -21 -23 -12 -23 -12 -4 10 21 23 26 26 26 11z
m-208 -72 c-7 -7 -12 -8 -12 -2 0 14 12 26 19 19 2 -3 -1 -11 -7 -17z m68 -5
c0 -5 -4 -15 -10 -23 -11 -18 -25 -7 -17 15 6 15 27 21 27 8z m246 -80 c-11
-11 -19 6 -11 24 8 17 8 17 12 0 3 -10 2 -21 -1 -24z m19 -63 c-33 -34 -45
-38 -45 -12 0 11 13 25 33 34 43 21 47 14 12 -22z m-145 20 c0 -12 -42 -51
-48 -45 -7 7 27 55 38 55 6 0 10 -4 10 -10z m210 -23 c0 -13 -22 -36 -46 -50
-6 -4 -4 9 5 28 16 34 41 47 41 22z m-303 -82 c-4 -8 -11 -15 -17 -15 -14 0
-13 27 3 33 16 6 21 1 14 -18z m243 -175 c0 -5 -4 -10 -10 -10 -5 0 -10 5 -10
10 0 6 5 10 10 10 6 0 10 -4 10 -10z m-40 -24 c0 -2 -3 -11 -6 -20 -9 -23 -24
-20 -24 4 0 11 7 20 15 20 8 0 15 -2 15 -4z m57 -48 c-3 -7 -5 -2 -5 12 0 14
2 19 5 13 2 -7 2 -19 0 -25z m-181 -4 c-4 -9 -9 -15 -11 -12 -3 3 -3 13 1 22
4 9 9 15 11 12 3 -3 3 -13 -1 -22z m-66 7 c0 -6 -4 -13 -10 -16 -5 -3 -10 1
-10 9 0 9 5 16 10 16 6 0 10 -4 10 -9z m105 -140 c3 -5 1 -12 -5 -16 -5 -3
-10 1 -10 9 0 18 6 21 15 7z m-5 -110 c0 -5 -7 -14 -15 -21 -13 -10 -15 -9
-15 9 0 12 6 21 15 21 8 0 15 -4 15 -9z m120 -136 c0 -8 -4 -15 -9 -15 -13 0
-22 16 -14 24 11 11 23 6 23 -9z m0 -94 c0 -12 -29 -35 -36 -28 -11 10 5 37
21 37 8 0 15 -4 15 -9z m14 -66 c-4 -8 -10 -13 -15 -10 -4 3 -6 12 -3 20 4 8
10 13 15 10 4 -3 6 -12 3 -20z m22 -152 c-10 -10 -19 5 -10 18 6 11 8 11 12 0
2 -7 1 -15 -2 -18z m-1016 -173 c0 -5 -2 -10 -4 -10 -3 0 -8 5 -11 10 -3 6 -1
10 4 10 6 0 11 -4 11 -10z m255 -140 c3 -6 -1 -7 -9 -4 -18 7 -21 14 -7 14 6
0 13 -4 16 -10z m701 -27 c-10 -10 -19 5 -10 18 6 11 8 11 12 0 2 -7 1 -15 -2
-18z m84 -86 c0 -8 -9 -22 -19 -31 -26 -23 -39 -2 -15 25 20 22 34 25 34 6z
m10 -161 c0 -3 -4 -8 -10 -11 -5 -3 -10 -1 -10 4 0 6 5 11 10 11 6 0 10 -2 10
-4z m-36 -40 c-7 -18 -32 -28 -39 -15 -5 7 15 20 42 28 1 1 0 -5 -3 -13z
m-956 -2 c31 -9 27 -21 -9 -26 -41 -6 -91 4 -97 20 -4 13 64 17 106 6z m932
-103 c0 -6 -4 -13 -10 -16 -5 -3 -10 1 -10 9 0 9 5 16 10 16 6 0 10 -4 10 -9z
m-801 -217 c39 -19 81 -57 81 -73 0 -17 -13 -14 -63 14 -36 21 -53 24 -85 19
-23 -3 -43 -13 -46 -20 -6 -16 -43 -19 -48 -4 -1 5 -18 10 -36 12 -65 5 -42
18 32 18 84 0 107 6 100 25 -3 7 3 15 13 18 10 3 18 5 19 6 0 0 15 -6 33 -15z
m861 -184 c0 -12 -28 -25 -36 -17 -9 9 6 27 22 27 8 0 14 -5 14 -10z m-1392
-1135 c-3 -3 -9 2 -12 12 -6 14 -5 15 5 6 7 -7 10 -15 7 -18z m1334 -77 c-7
-7 -12 -8 -12 -2 0 14 12 26 19 19 2 -3 -1 -11 -7 -17z"/>
<path d="M7456 4624 c-4 -9 -4 -19 -1 -22 2 -3 7 3 11 12 4 9 4 19 1 22 -2 3
-7 -3 -11 -12z"/>
<path d="M4025 4623 c-30 -7 -37 -17 -39 -60 -1 -22 -11 -53 -22 -69 -25 -35
-29 -75 -8 -67 8 3 14 9 14 14 0 4 14 22 30 39 29 30 34 43 30 87 -1 12 4 31
10 42 6 12 9 20 8 20 -2 -1 -12 -3 -23 -6z"/>
<path d="M6637 4623 c-4 -3 -7 -13 -7 -22 0 -14 2 -14 10 -1 8 13 11 11 16 -7
8 -27 19 -30 28 -5 3 9 9 23 12 30 6 13 -47 18 -59 5z"/>
<path d="M7350 4600 c-6 -11 -7 -20 -2 -20 10 0 32 21 32 32 0 16 -19 8 -30
-12z"/>
<path d="M7362 4528 c-19 -19 -14 -30 8 -18 11 6 20 15 20 20 0 14 -14 12 -28
-2z"/>
<path d="M6927 4513 c-4 -3 -7 -13 -7 -21 0 -12 3 -12 15 -2 8 7 15 16 15 21
0 11 -14 12 -23 2z"/>
<path d="M7396 4473 l-18 -38 22 20 c31 28 44 55 27 55 -7 0 -21 -17 -31 -37z"/>
<path d="M7295 4454 c-9 -14 -14 -28 -12 -31 6 -5 47 37 47 49 0 17 -18 7 -35
-18z"/>
<path d="M7383 4383 c-81 -86 -97 -113 -69 -113 21 0 66 44 66 64 0 9 23 38
50 65 45 44 62 71 43 71 -4 0 -44 -39 -90 -87z"/>
<path d="M7197 4429 c-30 -23 -35 -39 -12 -39 15 0 51 47 43 55 -3 3 -17 -4
-31 -16z"/>
<path d="M7124 4415 c-12 -13 -18 -28 -15 -34 10 -16 51 16 51 40 0 24 -10 23
-36 -6z"/>
<path d="M7233 4395 c-9 -24 0 -25 26 -4 23 19 23 19 2 19 -12 0 -24 -7 -28
-15z"/>
<path d="M1820 4385 c0 -8 5 -15 11 -15 5 0 8 -4 5 -8 -3 -5 20 -14 52 -21 31
-7 66 -15 77 -18 17 -4 15 -1 -8 25 -17 17 -47 35 -72 41 -57 14 -65 14 -65
-4z"/>
<path d="M4283 4369 c-57 -13 -209 -92 -316 -164 -104 -69 -125 -71 -239 -25
-110 43 -181 60 -290 67 -110 7 -176 -9 -235 -55 -115 -91 -159 -296 -103
-471 28 -87 102 -235 135 -271 12 -14 35 -45 50 -69 34 -55 187 -206 281 -276
233 -176 491 -253 648 -195 294 110 562 503 616 900 31 234 -57 437 -235 536
-45 26 -60 29 -160 31 -60 1 -129 -3 -152 -8z"/>
<path d="M1280 4334 c-153 -22 -162 -25 -156 -50 5 -20 3 -24 -15 -24 -12 0
-23 8 -26 20 -4 15 -14 20 -38 20 -34 0 -61 -22 -50 -40 10 -16 -23 -24 -40
-10 -10 9 -34 11 -71 7 -61 -6 -88 -26 -100 -71 -6 -26 -6 -26 22 -11 32 16
54 5 54 -27 0 -10 6 -25 12 -32 11 -11 16 -11 33 0 16 10 28 10 58 1 42 -13
46 -22 17 -37 -11 -6 -20 -18 -20 -26 0 -12 7 -14 33 -9 17 4 39 13 47 20 8 7
32 16 52 20 21 4 48 17 61 29 13 12 30 20 37 18 17 -6 122 29 136 45 8 9 22
12 40 8 34 -8 35 -7 94 4 86 16 88 17 92 78 3 50 1 56 -20 64 -22 9 -199 10
-252 3z m140 -94 c0 -5 -4 -10 -10 -10 -5 0 -10 5 -10 10 0 6 5 10 10 10 6 0
10 -4 10 -10z m-340 -7 c-1 -11 -26 -43 -34 -43 -10 0 -7 25 6 38 13 13 28 16
28 5z m-22 -99 c-10 -10 -28 6 -28 24 0 15 1 15 17 -1 9 -9 14 -19 11 -23z"/>
<path d="M7480 4305 c0 -8 5 -15 10 -15 6 0 10 7 10 15 0 8 -4 15 -10 15 -5 0
-10 -7 -10 -15z"/>
<path d="M7242 4217 c-20 -24 -29 -43 -22 -45 15 -5 48 25 66 60 23 44 -5 34
-44 -15z"/>
<path d="M5375 4220 c-3 -5 3 -10 15 -10 12 0 18 5 15 10 -3 6 -10 10 -15 10
-5 0 -12 -4 -15 -10z"/>
<path d="M6040 4197 c0 -12 10 -16 40 -15 22 0 40 4 40 9 0 5 -11 9 -24 9 -13
0 -31 3 -40 6 -10 4 -16 1 -16 -9z"/>
<path d="M6150 4179 c0 -15 -70 -43 -101 -40 -15 1 -44 -5 -65 -14 -29 -12
-70 -16 -161 -16 l-123 1 12 -25 c6 -14 18 -25 25 -25 8 0 21 -6 28 -14 18
-17 2 -34 -36 -38 -21 -3 -24 1 -22 25 2 25 -1 27 -35 28 -47 2 -66 -1 -72
-11 -8 -11 -47 -30 -64 -30 -8 0 -21 12 -28 28 -9 18 -22 28 -41 30 -23 3 -27
0 -27 -21 0 -17 -10 -29 -35 -42 -40 -22 -41 -21 -48 23 -4 25 0 37 15 52 l21
19 -30 32 c-38 38 -45 35 -136 -60 -56 -59 -67 -76 -67 -105 0 -48 -25 -175
-43 -216 -8 -19 -23 -55 -32 -80 -42 -111 -137 -278 -220 -385 -34 -44 -68
-91 -75 -105 -7 -14 -37 -47 -67 -74 -41 -38 -51 -52 -42 -62 9 -11 18 -7 45
21 18 19 39 35 45 35 6 0 9 8 7 17 -4 21 68 58 153 77 30 8 65 18 76 24 52 28
182 55 266 56 84 1 90 0 110 -25 12 -15 34 -29 49 -33 22 -5 27 -12 30 -44 2
-29 7 -37 23 -37 16 0 21 9 26 40 3 22 7 35 8 30 2 -19 61 -37 104 -32 107 12
146 35 213 122 29 39 103 83 208 124 23 9 26 14 16 26 -10 12 -7 17 14 26 15
7 22 15 17 19 -6 3 7 31 30 64 29 42 37 62 30 69 -6 6 -11 21 -11 33 0 38 -17
37 -74 -6 -30 -22 -58 -40 -62 -40 -4 0 -27 -9 -51 -21 -37 -18 -42 -23 -31
-36 17 -21 -14 -43 -59 -43 -20 0 -43 -8 -55 -20 -12 -11 -37 -23 -57 -26 -35
-7 -35 -7 -13 -22 12 -8 22 -18 22 -23 0 -15 -26 -10 -102 16 -39 14 -85 25
-102 25 -17 0 -42 7 -56 15 -83 48 -158 59 -276 40 -34 -6 -42 -4 -48 11 -5
14 3 28 33 55 23 20 41 42 41 50 0 9 19 20 45 28 25 7 64 27 87 45 22 17 47
35 54 40 12 9 84 -7 109 -25 6 -3 24 -9 40 -12 17 -3 42 -9 56 -12 26 -7 34
-2 62 37 7 9 26 19 43 21 45 7 68 21 94 60 22 33 26 34 73 30 42 -4 49 -2 54
16 6 23 61 61 87 61 9 0 16 8 16 18 0 14 2 15 10 2 7 -11 11 -9 19 13 6 16 11
32 11 37 0 15 69 40 113 40 24 0 59 3 76 6 31 6 31 7 11 21 -21 15 -26 43 -11
59 18 18 -14 40 -73 52 -72 15 -76 15 -76 1z"/>
<path d="M747 4163 c-18 -65 -18 -76 -2 -69 9 3 19 6 21 6 2 0 4 18 4 40 0 41
-15 55 -23 23z"/>
<path d="M1478 4153 c-31 -8 -19 -23 17 -23 36 0 47 13 19 24 -9 3 -16 5 -17
5 -1 -1 -10 -3 -19 -6z"/>
<path d="M7451 4103 c-29 -35 -40 -63 -24 -63 12 0 73 72 73 86 0 24 -17 16
-49 -23z"/>
<path d="M876 4065 c-3 -8 -3 -21 0 -28 2 -7 -9 -26 -25 -43 -17 -16 -31 -32
-31 -36 0 -14 28 -8 34 7 3 8 17 15 31 15 14 0 25 4 25 9 0 5 12 14 28 19 15
6 20 11 12 11 -8 1 -22 6 -30 11 -13 9 -13 11 0 20 13 8 12 10 -2 10 -10 0
-18 5 -18 10 0 15 -17 12 -24 -5z"/>
<path d="M2046 4040 c-71 -26 -117 -56 -214 -144 -83 -75 -95 -78 -178 -41
-93 41 -183 65 -244 65 -49 0 -64 -4 -91 -27 -47 -40 -59 -79 -59 -188 0 -133
34 -228 134 -380 252 -380 741 -696 922 -597 146 80 244 275 263 522 10 136 0
275 -28 382 -18 71 -30 96 -96 218 -29 53 -120 139 -186 175 -67 36 -147 41
-223 15z"/>
<path d="M1035 4010 c-10 -11 -54 -37 -99 -58 -57 -28 -85 -47 -94 -66 -6 -14
-20 -26 -30 -26 -24 0 -57 -36 -58 -64 -1 -11 -6 -42 -12 -68 -14 -72 -11 -93
16 -92 15 0 22 -5 22 -18 0 -20 -20 -24 -38 -6 -11 11 -24 -9 -34 -57 -3 -14
-11 -19 -26 -18 -23 3 -26 -2 -50 -76 -9 -26 -9 -37 -1 -42 14 -8 -17 -27 -81
-49 -36 -12 -44 -19 -42 -35 5 -25 17 -32 65 -40 49 -9 43 -29 -9 -33 -61 -4
-84 -11 -84 -26 0 -8 -7 -16 -15 -20 -8 -3 -15 -11 -15 -19 0 -22 -89 -90
-111 -84 -15 4 -19 0 -19 -19 0 -18 5 -24 23 -24 39 -1 55 -22 59 -81 3 -31 7
-60 10 -65 2 -5 11 -29 18 -53 12 -39 12 -45 -2 -55 -9 -7 -32 -10 -51 -8 -39
4 -53 31 -41 76 3 13 1 27 -5 30 -6 4 -11 3 -11 -2 0 -5 -10 -13 -22 -16 l-23
-6 22 -13 c20 -11 20 -14 8 -37 -8 -14 -14 -33 -15 -42 0 -10 -5 -18 -11 -18
-5 0 -7 -5 -4 -11 10 -15 -15 -69 -31 -69 -8 0 -14 -4 -14 -10 0 -5 -14 -10
-30 -10 -18 0 -33 -6 -36 -15 -4 -10 -20 -15 -44 -15 -21 0 -43 -7 -50 -15 -7
-8 -9 -15 -5 -15 4 0 -9 -22 -29 -49 l-36 -49 0 -231 c0 -164 3 -231 11 -231
9 0 9 -4 0 -13 -8 -10 -11 -295 -11 -1030 l0 -1017 436 0 435 0 24 26 c19 21
22 30 14 45 -5 11 -16 19 -23 19 -9 0 -12 7 -9 20 4 14 14 20 33 20 15 0 38 9
51 20 29 23 20 25 -28 5 -38 -16 -73 -20 -73 -7 0 9 60 65 77 72 21 9 -1 29
-35 32 -18 1 -32 5 -32 8 0 11 65 30 101 30 38 0 96 15 119 30 13 9 12 13 -9
28 l-23 19 31 13 c36 15 38 21 11 38 -16 10 -18 16 -10 31 8 16 5 20 -18 26
-15 5 -42 7 -59 6 -18 -2 -33 2 -33 8 0 7 26 11 68 11 65 0 67 1 68 26 1 14
10 32 20 39 18 14 18 15 -2 21 -20 5 -22 12 -20 86 2 80 10 98 50 111 5 2 9
20 8 40 -2 28 1 37 13 37 16 0 17 7 15 110 -1 81 10 120 49 167 17 21 31 41
31 46 0 13 43 46 59 47 7 0 11 6 7 15 -3 8 0 15 7 15 9 0 9 2 -1 8 -17 11 -52
77 -52 98 0 10 -6 14 -15 11 -28 -11 -26 14 4 49 17 19 31 39 31 44 0 5 12 21
26 37 14 15 21 29 15 31 -21 7 -11 32 18 46 20 11 29 23 29 41 0 27 -25 34
-45 14 -8 -8 -13 -7 -18 1 -4 6 7 31 24 55 35 49 39 70 14 84 -16 8 -15 12 10
31 51 40 125 120 116 126 -5 3 -2 15 6 28 9 13 18 48 22 77 3 30 13 64 20 76
17 25 9 63 -12 63 -8 0 -32 -6 -52 -13 -133 -48 -143 -50 -143 -31 0 8 6 14
14 14 7 0 33 11 57 24 24 13 60 29 80 35 41 13 60 32 78 78 17 42 7 90 -14 73
-12 -10 -15 -9 -15 4 0 10 9 16 24 16 30 0 47 48 22 62 -22 12 -20 20 14 63
17 21 29 44 26 50 -2 6 2 19 10 30 18 25 18 59 -1 75 -19 16 -4 46 30 62 26
12 41 55 30 87 -3 10 -38 44 -78 74 -40 30 -125 107 -191 171 -65 64 -122 116
-128 116 -5 0 -6 5 -3 10 3 6 -12 32 -34 58 -23 27 -41 52 -41 57 0 4 -11 23
-25 41 -14 18 -25 39 -25 47 0 7 -11 24 -25 37 -14 13 -25 29 -25 35 0 6 -15
41 -34 78 -48 97 -60 165 -53 314 5 96 10 129 22 143 16 18 13 40 -4 40 -4 0
-16 -9 -26 -20z m-155 -280 c0 -5 -7 -7 -15 -4 -8 4 -15 8 -15 10 0 2 7 4 15
4 8 0 15 -4 15 -10z m-42 -195 c14 -31 15 -35 4 -35 -12 0 -52 39 -52 50 0 21
37 9 48 -15z m242 -225 c0 -5 -4 -10 -10 -10 -5 0 -10 5 -10 10 0 6 5 10 10
10 6 0 10 -4 10 -10z m200 -166 c0 -8 -4 -12 -10 -9 -5 3 -10 10 -10 16 0 5 5
9 10 9 6 0 10 -7 10 -16z m-560 -169 c0 -8 -4 -15 -10 -15 -5 0 -10 7 -10 15
0 8 5 15 10 15 6 0 10 -7 10 -15z m-92 -179 c8 -19 8 -27 -3 -36 -19 -16 -35
-4 -35 24 0 42 21 48 38 12z m179 -21 c5 -16 -14 -38 -26 -31 -18 12 -13 48 6
44 9 -2 18 -7 20 -13z m-647 -155 c0 -5 -2 -10 -4 -10 -3 0 -8 5 -11 10 -3 6
-1 10 4 10 6 0 11 -4 11 -10z m1150 -110 c0 -5 -5 -10 -11 -10 -5 0 -7 5 -4
10 3 6 8 10 11 10 2 0 4 -4 4 -10z m-936 -31 c-10 -16 -24 -9 -24 12 0 18 2
19 15 9 8 -7 12 -16 9 -21z m1126 -144 c-7 -8 -16 -12 -21 -9 -13 8 -1 24 18
24 13 0 13 -3 3 -15z m-740 -100 c0 -8 -4 -15 -10 -15 -5 0 -10 7 -10 15 0 8
5 15 10 15 6 0 10 -7 10 -15z m55 -85 c3 -5 1 -10 -4 -10 -6 0 -11 5 -11 10 0
6 2 10 4 10 3 0 8 -4 11 -10z m461 -49 c-3 -4 -20 -11 -37 -15 -18 -3 -47 -17
-65 -31 -37 -28 -67 -33 -58 -10 4 8 11 15 16 15 6 0 16 8 23 17 7 10 33 20
61 24 27 3 53 7 57 8 5 0 6 -3 3 -8z m-1101 -251 c0 -27 -22 -39 -31 -16 -8
22 3 49 19 43 6 -2 12 -14 12 -27z m1117 -302 c-7 -7 -12 -8 -12 -2 0 6 3 14
7 17 3 4 9 5 12 2 2 -3 -1 -11 -7 -17z m-1241 -101 c-1 -12 -15 -9 -19 4 -3 6
1 10 8 8 6 -3 11 -8 11 -12z m669 -232 c0 -8 -4 -15 -10 -15 -5 0 -7 7 -4 15
4 8 8 15 10 15 2 0 4 -7 4 -15z m-430 -165 c0 -5 -4 -10 -10 -10 -5 0 -10 5
-10 10 0 6 5 10 10 10 6 0 10 -4 10 -10z m160 -244 c0 -3 -4 -8 -10 -11 -5 -3
-10 -1 -10 4 0 6 5 11 10 11 6 0 10 -2 10 -4z m-285 -236 c-3 -5 -10 -10 -16
-10 -5 0 -9 5 -9 10 0 6 7 10 16 10 8 0 12 -4 9 -10z"/>
<path d="M2845 4010 c-4 -6 3 -10 14 -10 25 0 27 6 6 13 -8 4 -17 2 -20 -3z"/>
<path d="M2767 3608 c-16 -8 -18 -25 -18 -121 0 -146 -13 -296 -34 -377 -37
-140 -37 -128 1 -128 19 0 40 8 50 19 9 10 22 19 29 19 6 0 17 25 24 56 14 61
61 124 92 124 16 0 19 -8 19 -54 0 -53 -23 -117 -63 -177 -23 -35 -21 -152 4
-174 15 -15 18 -12 33 25 9 22 15 44 14 48 -4 14 26 132 34 132 4 0 8 8 8 18
0 20 29 52 47 52 5 0 21 9 34 21 13 12 45 32 72 45 45 23 48 23 72 8 14 -9 25
-19 25 -23 1 -3 20 -28 45 -54 34 -39 48 -47 64 -42 17 5 21 2 21 -18 0 -25
37 -67 59 -67 10 0 11 -3 2 -14 -6 -7 -13 -43 -16 -79 -3 -38 -13 -81 -24 -99
-50 -89 -64 -106 -86 -112 -13 -3 -36 -17 -52 -30 -50 -42 -147 -59 -240 -42
-41 7 -43 7 -43 -17 0 -24 15 -40 155 -162 65 -56 135 -105 151 -105 5 0 32
-14 58 -31 27 -16 52 -27 56 -22 4 4 13 26 20 48 16 49 55 128 78 157 9 11 36
43 60 70 24 28 53 70 65 94 18 38 19 48 9 77 -7 18 -12 39 -12 46 0 22 28 41
59 41 16 0 42 5 56 12 19 9 28 9 37 0 7 -7 21 -12 33 -12 28 -1 55 -23 55 -46
1 -26 19 -48 60 -70 l35 -19 -30 -3 c-16 -2 -40 -14 -53 -27 -22 -23 -23 -25
-7 -54 8 -17 23 -31 32 -31 38 0 83 25 94 52 6 15 19 28 29 28 9 0 39 12 65
26 29 15 69 27 99 28 31 2 71 14 101 30 37 19 72 28 135 33 l85 7 -49 11 -50
11 53 12 c29 7 81 12 115 12 35 0 78 5 96 12 30 10 32 12 14 19 -10 4 -53 8
-95 8 -41 1 -96 8 -120 16 -43 15 -51 14 -150 -10 -121 -29 -202 -31 -314 -9
-44 9 -91 18 -105 21 -14 3 -45 14 -70 25 -25 12 -61 27 -80 35 -82 35 -340
197 -340 214 0 5 -5 9 -11 9 -23 0 -193 183 -284 305 -56 75 -57 77 -109 157
l-37 58 -72 -1 c-40 0 -81 -5 -90 -11z"/>
<path d="M5113 3197 c-22 -11 -38 -50 -28 -66 10 -18 44 -18 81 0 22 10 44 18
51 19 7 0 24 5 38 12 l25 11 -30 19 c-34 20 -101 22 -137 5z"/>
<path d="M5738 3183 c-13 -3 -18 -15 -18 -44 0 -58 27 -53 32 6 2 25 3 44 3
44 0 -1 -8 -3 -17 -6z"/>
<path d="M5520 3164 c0 -8 5 -12 10 -9 6 4 8 11 5 16 -9 14 -15 11 -15 -7z"/>
<path d="M5940 3016 c0 -9 -4 -16 -10 -16 -5 0 -10 -6 -10 -14 0 -14 45 -28
55 -17 3 3 29 15 58 28 l52 22 -41 1 c-23 0 -56 3 -73 6 -24 5 -31 3 -31 -10z"/>
<path d="M5470 3007 c0 -8 -16 -27 -35 -43 -19 -16 -35 -34 -35 -41 0 -7 -11
-20 -25 -29 -14 -9 -25 -22 -25 -29 0 -8 -10 -17 -22 -21 l-23 -8 24 -6 c14
-3 26 -11 29 -19 3 -10 -6 -11 -39 -6 -38 5 -46 3 -57 -16 -18 -28 -2 -40 48
-38 19 1 42 -1 50 -3 8 -3 12 -3 8 -1 -19 11 -6 25 17 19 14 -4 25 -2 25 4 0
5 -7 10 -15 10 -11 0 -15 11 -14 43 l1 42 10 -35 10 -35 19 35 c10 19 18 28
19 20 0 -9 8 -4 18 13 9 15 27 30 39 33 19 5 22 12 19 48 -2 22 -1 29 1 15 3
-21 9 -26 24 -22 15 4 19 14 19 44 l0 39 -45 0 c-31 0 -45 -4 -45 -13z"/>
<path d="M2680 2930 c0 -5 7 -7 15 -4 8 4 15 8 15 10 0 2 -7 4 -15 4 -8 0 -15
-4 -15 -10z"/>
<path d="M357 2913 c-12 -11 -8 -23 8 -23 8 0 15 7 15 15 0 16 -12 20 -23 8z"/>
<path d="M2533 2734 c-25 -28 -30 -49 -10 -41 49 21 67 34 65 47 -5 24 -32 22
-55 -6z"/>
<path d="M5268 2702 c-28 -5 -24 -58 5 -66 36 -10 65 -7 79 8 8 7 24 17 37 21
17 5 20 10 12 18 -12 12 -104 25 -133 19z"/>
<path d="M2356 2620 c-22 -17 -45 -30 -52 -30 -17 0 -29 -41 -14 -50 6 -4 43
-13 82 -20 69 -13 71 -13 118 13 26 15 62 27 79 27 42 0 45 37 4 45 -16 3 -46
15 -68 25 -57 29 -102 25 -149 -10z"/>
<path d="M5088 2613 c-16 -2 -28 -10 -28 -17 0 -8 -10 -20 -22 -29 -31 -21
-17 -33 57 -47 93 -19 124 -23 140 -17 12 5 12 10 0 34 -8 15 -15 33 -15 39 0
28 -70 48 -132 37z"/>
<path d="M4258 2538 c8 -8 17 -8 34 0 22 10 21 11 -11 11 -27 1 -32 -2 -23
-11z"/>
<path d="M4021 2476 l-22 -24 28 -8 c39 -12 103 -6 103 10 0 20 -34 46 -62 46
-13 0 -35 -11 -47 -24z"/>
<path d="M5034 2484 c22 -8 41 -12 44 -9 6 6 -45 25 -66 24 -9 0 1 -7 22 -15z"/>
<path d="M4890 2471 c0 -20 -39 -51 -56 -44 -11 4 -15 2 -12 -7 2 -7 43 -33
91 -59 94 -50 109 -50 134 0 7 13 19 29 28 35 18 13 12 20 -50 51 -48 24 -135
39 -135 24z"/>
<path d="M3930 2448 c-24 -9 -40 -25 -40 -40 0 -15 45 -8 68 10 19 15 21 20
10 29 -8 7 -21 8 -38 1z"/>
<path d="M2480 2411 c0 -5 9 -7 20 -4 11 3 20 7 20 9 0 2 -9 4 -20 4 -11 0
-20 -4 -20 -9z"/>
<path d="M5098 2383 c6 -2 18 -2 25 0 6 3 1 5 -13 5 -14 0 -19 -2 -12 -5z"/>
<path d="M4775 2360 c-3 -5 -19 -10 -34 -10 -15 0 -30 -3 -33 -6 -12 -11 5
-44 22 -44 10 0 20 -6 23 -14 8 -21 69 -30 80 -11 4 8 17 15 28 15 29 0 9 32
-36 59 -42 24 -42 24 -50 11z"/>
<path d="M6270 2313 c0 -4 4 -14 9 -21 7 -12 13 -11 37 2 16 8 25 16 19 16 -5
1 -22 4 -37 6 -16 3 -28 1 -28 -3z"/>
<path d="M2530 2270 c0 -5 4 -10 9 -10 6 0 13 5 16 10 3 6 -1 10 -9 10 -9 0
-16 -4 -16 -10z"/>
<path d="M2757 2193 c-10 -10 -8 -33 3 -33 5 0 14 9 20 20 8 15 8 20 -3 20 -8
0 -17 -3 -20 -7z"/>
<path d="M2960 2045 c0 -8 4 -15 9 -15 10 0 61 -47 61 -57 1 -21 40 -51 84
-66 27 -9 64 -32 82 -51 36 -37 93 -59 130 -50 14 4 30 -3 50 -21 23 -22 34
-25 59 -19 16 4 42 8 58 8 27 1 35 10 18 20 -4 3 -11 19 -14 36 -5 22 -16 35
-44 48 -21 9 -50 31 -64 47 -15 17 -47 51 -71 76 l-43 46 -105 -7 c-84 -6
-107 -5 -116 6 -16 20 -94 19 -94 -1z"/>
<path d="M6160 1979 c0 -5 5 -7 10 -4 6 3 10 8 10 11 0 2 -4 4 -10 4 -5 0 -10
-5 -10 -11z"/>
<path d="M5195 1930 c-8 -13 20 -24 41 -16 20 8 9 26 -16 26 -10 0 -22 -5 -25
-10z"/>
<path d="M5968 1823 c6 -2 18 -2 25 0 6 3 1 5 -13 5 -14 0 -19 -2 -12 -5z"/>
<path d="M5083 1798 c-45 -22 -19 -57 32 -44 18 5 25 13 25 31 0 27 -19 32
-57 13z"/>
<path d="M5640 1800 c0 -5 9 -10 21 -10 11 0 17 5 14 10 -3 6 -13 10 -21 10
-8 0 -14 -4 -14 -10z"/>
<path d="M3538 1793 c7 -3 16 -2 19 1 4 3 -2 6 -13 5 -11 0 -14 -3 -6 -6z"/>
<path d="M3835 1773 c-65 -10 -57 -39 13 -49 37 -5 43 -3 51 18 8 23 -2 39
-24 36 -5 0 -23 -3 -40 -5z"/>
<path d="M5643 1773 c-20 -7 -15 -23 7 -23 11 0 20 4 20 9 0 13 -12 19 -27 14z"/>
<path d="M3550 1753 c1 -19 18 -33 33 -27 21 8 22 20 1 28 -21 8 -34 8 -34 -1z"/>
<path d="M5133 1723 c-21 -7 -15 -33 7 -33 11 0 20 3 20 8 0 15 -15 29 -27 25z"/>
<path d="M5613 1698 c-47 -10 -55 -29 -20 -46 32 -15 108 -22 129 -11 18 10
25 44 11 52 -20 11 -82 14 -120 5z"/>
<path d="M5893 1683 c9 -9 20 -13 24 -9 4 4 1 11 -7 16 -25 16 -35 11 -17 -7z"/>
<path d="M5303 1667 c-5 -9 23 -21 34 -14 4 2 31 1 60 -2 34 -5 62 -3 80 5 15
7 26 13 23 14 -23 5 -193 3 -197 -3z"/>
<path d="M5243 1540 c-6 -24 -6 -24 -43 -5 -21 11 -30 12 -30 4 0 -7 -8 -18
-17 -25 -16 -12 -16 -15 -3 -24 24 -16 78 -12 88 7 9 15 12 14 41 -6 17 -12
35 -20 39 -17 5 3 35 -2 67 -10 84 -22 143 -12 186 32 21 21 29 38 23 43 -5 6
-85 13 -177 16 -164 6 -169 5 -174 -15z"/>
<path d="M3627 1523 c-11 -10 -8 -20 8 -27 10 -4 15 1 15 14 0 20 -11 26 -23
13z"/>
<path d="M6145 1446 c-43 -12 -58 -43 -35 -72 14 -16 50 -19 50 -4 0 6 8 10
17 10 15 0 15 -1 2 -12 -23 -19 -14 -120 10 -116 10 2 19 19 25 51 9 44 26 66
26 32 0 -19 7 -19 25 -2 19 20 5 71 -25 94 -37 29 -51 31 -95 19z"/>
<path d="M6290 1430 c0 -5 5 -10 10 -10 6 0 10 5 10 10 0 6 -4 10 -10 10 -5 0
-10 -4 -10 -10z"/>
<path d="M2640 1355 c0 -8 9 -15 20 -15 11 0 20 7 20 15 0 8 -9 15 -20 15 -11
0 -20 -7 -20 -15z"/>
<path d="M2792 1353 c4 -22 43 -25 43 -3 0 8 -11 16 -23 18 -19 3 -23 0 -20
-15z"/>
<path d="M2700 1316 c0 -9 7 -16 16 -16 17 0 14 22 -4 28 -7 2 -12 -3 -12 -12z"/>
<path d="M2876 1105 c-8 -21 35 -67 52 -56 12 7 11 14 -2 40 -18 33 -40 41
-50 16z"/>
<path d="M5260 1049 c-11 -26 -11 -33 2 -46 24 -23 54 1 54 43 0 28 -4 34 -22
34 -15 0 -26 -10 -34 -31z"/>
<path d="M5186 1053 c-9 -9 -7 -33 3 -33 12 0 22 28 12 34 -5 3 -11 3 -15 -1z"/>
<path d="M2032 983 c4 -20 18 -26 37 -14 18 12 5 31 -20 31 -14 0 -19 -6 -17
-17z"/>
<path d="M1877 984 c-13 -14 -7 -22 24 -33 45 -15 79 -14 79 3 0 8 -3 17 -7
19 -16 10 -89 18 -96 11z"/>
<path d="M2110 975 c-20 -24 9 -57 68 -77 61 -22 72 -22 72 -3 0 8 9 15 20 15
13 0 20 7 20 20 0 30 -46 45 -88 30 -30 -11 -36 -10 -56 9 -20 19 -24 20 -36
6z"/>
<path d="M2350 864 c0 -8 13 -28 29 -44 36 -36 71 -95 71 -119 0 -10 -6 -23
-13 -29 -15 -13 -59 -12 -68 1 -4 6 -14 7 -23 4 -20 -8 -21 -56 -2 -82 13 -18
14 -18 21 4 8 25 24 24 39 -4 6 -11 19 -30 28 -43 13 -17 15 -29 8 -42 -7 -13
-4 -22 10 -35 11 -10 20 -25 20 -34 0 -9 16 -29 36 -45 33 -26 41 -28 97 -23
72 7 90 23 81 77 -3 19 -12 49 -19 65 -21 48 -28 85 -16 85 6 0 17 13 26 30
17 32 20 80 6 80 -5 0 -14 15 -21 34 -17 54 -42 69 -98 64 -27 -3 -52 0 -59 6
-26 26 -50 42 -84 54 -48 16 -69 15 -69 -4z m288 -242 c4 -24 -7 -29 -26 -10
-18 18 -15 40 6 36 9 -2 18 -13 20 -26z"/>
<path d="M5631 571 c-30 -3 -56 -12 -59 -18 -5 -16 44 -18 53 -3 3 6 19 10 36
10 16 0 29 5 29 10 0 6 -1 9 -2 8 -2 -1 -27 -4 -57 -7z"/>
<path d="M5429 509 c-10 -6 -4 -9 19 -9 17 0 32 2 32 4 0 9 -39 13 -51 5z"/>
<path d="M5586 483 c-16 -22 -16 -23 9 -23 14 0 25 -4 25 -10 0 -5 9 -10 20
-10 25 0 26 17 3 23 -12 3 -9 5 8 6 14 0 34 7 44 15 18 13 14 14 -36 17 -49 4
-58 1 -73 -18z"/>
<path d="M2880 483 c0 -20 17 -50 24 -43 2 3 2 17 -1 33 -6 30 -23 37 -23 10z"/>
<path d="M5450 450 c-18 -12 -2 -12 25 0 13 6 15 9 5 9 -8 0 -22 -4 -30 -9z"/>
<path d="M3027 422 c-10 -10 -17 -33 -17 -50 0 -26 3 -30 18 -25 26 9 42 34
42 65 0 33 -19 37 -43 10z"/>
<path d="M2654 325 c-3 -14 -3 -32 0 -41 7 -17 32 -13 29 5 -2 6 3 11 11 11 8
0 16 6 18 13 9 22 -3 37 -28 37 -17 0 -25 -7 -30 -25z"/>
<path d="M2957 214 c-4 -4 -7 -15 -7 -25 0 -12 6 -16 20 -12 12 3 20 12 18 21
-3 17 -21 26 -31 16z"/>
<path d="M5800 80 c0 -13 5 -20 13 -17 6 2 12 10 12 17 0 7 -6 15 -12 18 -8 2
-13 -5 -13 -18z"/>
<path d="M975 50 c-18 -19 -17 -20 3 -20 29 0 72 18 72 30 0 18 -56 11 -75
-10z"/>
<path d="M5660 59 c-14 -4 -19 -7 -12 -8 8 -1 10 -9 6 -26 -6 -23 -4 -25 30
-25 20 0 36 5 36 10 0 6 9 10 20 10 11 0 20 -4 20 -10 0 -5 16 -10 35 -10 37
0 48 17 18 26 -10 3 -31 11 -48 19 -40 18 -75 23 -105 14z"/>
</g>
</svg>
